<svg width="357" height="76" viewBox="0 0 357 76" fill="none" xmlns="http://www.w3.org/2000/svg">
<path d="M0.0390625 50.9903L25.4125 39.6973L40.017 48.1671L42.9674 75.954L24.97 75.8054L27.6253 56.4883L24.5274 54.7052L9.33283 66.5926L0.0390625 50.9903Z" fill="#B4C0D3"/>
<path d="M41.6406 46.9774L64.0637 63.4713L72.9149 47.5718L54.9174 40.2907V36.7245L72.9149 29.2948L64.0637 13.5439L41.6406 30.0378V46.9774Z" fill="#00D3AB"/>
<path d="M40.017 28.701L42.9674 0.914062L24.97 1.21125L27.6253 20.5284L24.5274 22.3115L9.18531 10.424L0.0390625 25.8777L25.4125 37.1708L40.017 28.701Z" fill="#4876EF"/>
<path d="M132.958 35.1039V61.1364H142.644V27.9604H128.538V35.1039H132.958Z" fill="#4876EE"/>
<path d="M132.655 23.299C133.543 24.2271 134.895 24.6911 136.711 24.6911C138.528 24.6911 139.859 24.2271 140.706 23.299C141.595 22.33 142.038 21.1191 142.038 19.6666C142.038 18.173 141.595 16.9622 140.706 16.0341C139.859 15.0656 138.528 14.5811 136.711 14.5811C134.895 14.5811 133.543 15.0656 132.655 16.0341C131.808 16.9622 131.384 18.173 131.384 19.6666C131.384 21.1191 131.808 22.33 132.655 23.299Z" fill="#4876EE"/>
<path d="M99.2376 60.4096C101.982 61.6609 105.352 62.2867 109.347 62.2867C113.101 62.2867 116.329 61.7013 119.034 60.531C121.738 59.3606 123.816 57.7257 125.269 55.6273C126.763 53.4879 127.509 51.0058 127.509 48.1806C127.509 45.4363 126.804 43.1155 125.391 41.2184C124.018 39.2813 122.102 37.7678 119.639 36.6784C117.177 35.548 114.332 34.8417 111.103 34.5594L107.713 34.2567C105.695 34.0949 104.242 33.5504 103.354 32.6219C102.466 31.6938 102.022 30.6038 102.022 29.3531C102.022 28.384 102.265 27.4964 102.748 26.6892C103.233 25.8415 103.959 25.1757 104.928 24.6911C105.937 24.2071 107.168 23.9648 108.621 23.9648C110.154 23.9648 111.426 24.2471 112.435 24.8125C112.657 24.9319 112.868 25.0596 113.066 25.1952L113.114 25.2288C113.188 25.28 113.261 25.3331 113.332 25.3867C113.945 25.8552 114.433 26.4103 114.796 27.0523C115.32 27.9404 115.584 28.929 115.584 30.0189H125.269C125.269 27.1128 124.603 24.5902 123.272 22.4513C121.94 20.272 120.023 18.5971 117.521 17.4263C115.058 16.2155 112.092 15.61 108.621 15.61C105.311 15.61 102.446 16.1755 100.024 17.3054C97.6027 18.3953 95.7056 19.9693 94.3339 22.0273C93.0012 24.0857 92.3354 26.5278 92.3354 29.3531C92.3354 33.2677 93.6476 36.4156 96.271 38.7973C98.8944 41.1784 102.406 42.5506 106.805 42.9137L110.135 43.2164C112.838 43.4587 114.796 44.0037 116.007 44.8508C117.217 45.6581 117.823 46.768 117.823 48.1806C117.823 48.8299 117.717 49.4387 117.504 50.0075C117.346 50.4296 117.13 50.8298 116.855 51.2076C116.208 52.0553 115.26 52.7211 114.009 53.2056C112.758 53.6897 111.204 53.9319 109.347 53.9319C107.289 53.9319 105.614 53.6497 104.323 53.0843C103.031 52.4789 102.063 51.6921 101.416 50.7236C100.811 49.7545 100.509 48.7056 100.509 47.5752H90.8828C90.8828 50.4409 91.5886 52.9834 93.0012 55.2032C94.4139 57.383 96.4933 59.1183 99.2376 60.4096Z" fill="#4876EE"/>
<path d="M164.256 61.5599C160.906 61.5599 158.202 61.1563 156.144 60.3491C154.085 59.5015 152.572 58.1093 151.603 56.1722C150.675 54.1942 150.211 51.5308 150.211 48.1806V35.0435H145.186V27.9604H150.211V19.0007H159.231V27.9604H168.918V35.0435H159.231V48.5442C159.231 50.1182 159.635 51.329 160.442 52.1762C161.289 52.9834 162.48 53.387 164.014 53.387H168.918V61.5599H164.256Z" fill="#4876EE"/>
<path fill-rule="evenodd" clip-rule="evenodd" d="M180.58 60.8337C182.759 61.8022 185.262 62.2867 188.087 62.2867C190.871 62.2867 193.334 61.8022 195.473 60.8337C197.612 59.8651 199.388 58.5129 200.8 56.7776C202.213 55.0418 203.162 53.0643 203.645 50.8445H194.746C194.343 51.8535 193.576 52.7011 192.446 53.387C191.316 54.0733 189.862 54.4165 188.087 54.4165C186.987 54.4165 186.004 54.2863 185.138 54.026C184.479 53.8281 183.888 53.5547 183.365 53.2056C182.154 52.3984 181.266 51.2681 180.701 49.8155C180.544 49.4016 180.41 48.9688 180.297 48.5179C180.182 48.0612 180.089 47.5859 180.019 47.0911H204.251V43.8219C204.251 40.7948 203.605 38.0101 202.314 35.4676C201.022 32.8841 199.145 30.8056 196.684 29.2317C194.262 27.6173 191.275 26.8101 187.723 26.8101C185.019 26.8101 182.597 27.2946 180.458 28.2631C178.361 29.1912 176.605 30.4625 175.192 32.0769C173.78 33.6913 172.69 35.528 171.922 37.5865C171.196 39.604 170.833 41.7229 170.833 43.9427V45.1536C170.833 47.2929 171.196 49.3914 171.922 51.4499C172.69 53.4679 173.78 55.3041 175.192 56.959C176.645 58.5734 178.44 59.8651 180.58 60.8337ZM180.186 41.1048C180.213 40.9766 180.241 40.8504 180.272 40.7261C180.356 40.3839 180.453 40.0559 180.563 39.7424C180.625 39.564 180.691 39.39 180.762 39.2209C181.367 37.7273 182.255 36.5974 183.425 35.8307C183.863 35.5441 184.337 35.3111 184.846 35.1317C185.702 34.8309 186.662 34.6803 187.723 34.6803C189.379 34.6803 190.75 35.0639 191.84 35.8307C192.97 36.557 193.818 37.6264 194.383 39.0391C194.429 39.1531 194.472 39.2691 194.514 39.3866C194.581 39.5738 194.643 39.7658 194.701 39.9628C194.786 40.2557 194.861 40.5589 194.927 40.8723C194.975 41.1034 195.016 41.3398 195.053 41.582H180.093C180.121 41.4202 180.152 41.2613 180.186 41.1048Z" fill="#4876EE"/>
<path d="M208.248 61.1364V27.9604H215.937V36.3162C216.041 35.8195 216.16 35.3428 216.293 34.8855C216.407 34.5005 216.529 34.129 216.663 33.7722C217.511 31.5119 218.782 29.8171 220.477 28.6867C222.172 27.5164 224.25 26.9314 226.713 26.9314H227.136C229.639 26.9314 231.717 27.5164 233.372 28.6867C235.067 29.8171 236.339 31.5119 237.186 33.7722L237.253 33.9428L237.31 34.0988C237.348 33.9886 237.388 33.8799 237.428 33.7722C238.316 31.5119 239.608 29.8171 241.303 28.6867C242.998 27.5164 245.077 26.9314 247.539 26.9314H247.963C250.464 26.9314 252.563 27.5164 254.258 28.6867C255.994 29.8171 257.306 31.5119 258.193 33.7722C259.081 36.0325 259.526 38.8577 259.526 42.2479V61.1364H249.839V41.7029C249.839 39.8867 249.355 38.4137 248.386 37.2838C247.458 36.1534 246.126 35.5884 244.391 35.5884C242.655 35.5884 241.283 36.1739 240.274 37.3442C239.265 38.4741 238.76 39.9876 238.76 41.8848V61.1364H229.013V41.7029C229.013 39.8867 228.529 38.4137 227.56 37.2838C226.632 36.1534 225.32 35.5884 223.626 35.5884C221.849 35.5884 220.457 36.1739 219.448 37.3442C218.439 38.4741 217.934 39.9876 217.934 41.8848V61.1364H208.248Z" fill="#4876EE"/>
<path fill-rule="evenodd" clip-rule="evenodd" d="M285.4 54.744V61.1364H293.088V40.7948C293.088 37.7273 292.483 35.2253 291.272 33.2877C290.061 31.3101 288.286 29.8371 285.945 28.8685C283.645 27.9 280.799 27.4155 277.409 27.4155C276.674 27.4155 275.907 27.4233 275.107 27.4393C274.635 27.4491 274.15 27.4613 273.655 27.4759C272.323 27.5164 271.031 27.5768 269.781 27.6577L268.825 27.7221C268.334 27.7562 267.873 27.7898 267.439 27.8239C267.113 27.8493 266.804 27.8746 266.512 27.9V36.073C267.763 35.992 269.155 35.9111 270.689 35.8307C271.118 35.8083 271.543 35.7873 271.965 35.7678C272.575 35.7395 273.176 35.7152 273.771 35.6937C274.241 35.6767 274.707 35.6616 275.169 35.6489C276.621 35.6084 277.792 35.5884 278.68 35.5884C280.456 35.5884 281.747 36.012 282.555 36.8597C283.362 37.7074 283.765 38.9786 283.765 40.6739V40.7948H277.772C274.826 40.7948 272.223 41.1784 269.962 41.9452C267.702 42.6715 265.946 43.8219 264.696 45.3958C263.444 46.9298 262.819 48.9074 262.819 51.329C262.819 53.5488 263.323 55.4659 264.332 57.0803C265.341 58.6543 266.733 59.8651 268.509 60.7123C270.326 61.5599 272.425 61.984 274.805 61.984C277.106 61.984 279.043 61.5599 280.618 60.7123C282.232 59.8651 283.483 58.6543 284.371 57.0803C284.527 56.8152 284.673 56.5398 284.809 56.2541C285.001 55.8495 285.172 55.4245 285.323 54.979L285.4 54.744ZM283.765 48.8469V46.183H277.711C276.016 46.183 274.705 46.6066 273.777 47.4543C272.889 48.2615 272.444 49.3714 272.444 50.784C272.444 51.4489 272.555 52.0533 272.776 52.5978C272.999 53.1437 273.332 53.6287 273.777 54.0533C274.705 54.8605 276.016 55.2641 277.711 55.2641C278.034 55.2641 278.346 55.248 278.647 55.2164C278.893 55.1905 279.132 55.154 279.363 55.1067C279.807 55.0165 280.226 54.8873 280.618 54.7192C281.506 54.3156 282.232 53.6497 282.796 52.7211C283.362 51.793 283.685 50.5013 283.765 48.8469Z" fill="#4876EE"/>
<path d="M298.885 61.1364V27.9604H306.574V38.9109C306.942 35.7849 307.871 33.2643 309.359 31.3506C311.377 28.8081 314.282 27.5368 318.077 27.5368H319.348V35.8911H316.926C314.263 35.8911 312.204 36.6174 310.751 38.0705C309.298 39.4831 308.571 41.5416 308.571 44.2454V61.1364H298.885Z" fill="#4876EE"/>
<path d="M331.631 45.6381H334.84L345.313 61.1364H356.21L342.93 42.1026L353.849 27.9604H343.679L331.631 43.7351V16.9422H321.945V61.1364H331.631V45.6381Z" fill="#4876EE"/>
</svg>
